<svg width="80" height="50" viewBox="0 0 80 50" fill="none" xmlns="http://www.w3.org/2000/svg">
<path d="M48.5936 -33.4407L55.3307 -7.97584C55.4989 -7.34094 55.8322 -6.7619 56.2968 -6.29764C56.7614 -5.83338 57.3407 -5.50046 57.9757 -5.33276L83.4425 1.40432C87.1301 2.38182 87.1301 7.61432 83.4425 8.59182L57.9738 15.3308C57.3389 15.499 56.7598 15.8323 56.2956 16.2969C55.8313 16.7615 55.4984 17.3408 55.3307 17.9758L48.5936 43.4426C47.6161 47.1302 42.3836 47.1302 41.4061 43.4426L34.669 17.9739C34.5009 17.339 34.1675 16.76 33.7029 16.2957C33.2384 15.8314 32.6591 15.4985 32.024 15.3308L6.55921 8.59374C2.87154 7.61624 2.87154 2.38374 6.55921 1.40624L32.0279 -5.33084C32.6628 -5.499 33.2418 -5.83234 33.7061 -6.29694C34.1703 -6.76153 34.5033 -7.34081 34.671 -7.97584L41.408 -33.4426C42.3855 -37.1303 47.618 -37.1303 48.5955 -33.4426" stroke="black" stroke-opacity="0.15" stroke-width="7" stroke-linecap="round" stroke-linejoin="round"/>
</svg>
